<?xml version="1.0" encoding="UTF-8"?>
<svg height="16px" viewBox="0 0 16 16" width="16px" xmlns="http://www.w3.org/2000/svg" xmlns:xlink="http://www.w3.org/1999/xlink">
    <filter id="a" height="100%" width="100%" x="0%" y="0%">
        <feColorMatrix color-interpolation-filters="sRGB" values="0 0 0 0 1 0 0 0 0 1 0 0 0 0 1 0 0 0 1 0"/>
    </filter>
    <mask id="b">
        <g filter="url(#a)">
            <rect fill-opacity="0.113208" height="19.2" width="19.2" x="-1.6" y="-1.6"/>
        </g>
    </mask>
    <clipPath id="c">
        <rect height="9" width="115"/>
    </clipPath>
    <pattern id="d" height="9" patternTransform="matrix(1.003653 0 0 1.012363 8 16)" patternUnits="userSpaceOnUse" viewBox="0 0 115 9" width="115">
        <g clip-path="url(#c)">
            <path d="m 114.921875 0 h 0.078125 v 9 h -0.078125 z m -6.046875 0 h 0.347656 v 9 h -0.347656 z m -6.046875 0 h 0.617187 v 9 h -0.617187 z m -6.050781 0 h 0.886718 v 9 h -0.886718 z m -6.046875 0 h 1.15625 v 9 h -1.15625 z m -6.050781 0 h 1.429687 v 9 h -1.429687 z m -6.046876 0 h 1.699219 v 9 h -1.699219 z m -6.050781 0 h 1.96875 v 9 h -1.96875 z m -6.046875 0 h 2.238282 v 9 h -2.238282 z m -6.050781 0 h 2.511719 v 9 h -2.511719 z m -6.046875 0 h 2.78125 v 9 h -2.78125 z m -6.046875 0 h 3.046875 v 9 h -3.046875 z m -6.050781 0 h 3.320312 v 9 h -3.320312 z m -6.046875 0 h 3.589843 v 9 h -3.589843 z m -6.050781 0 h 3.863281 v 9 h -3.863281 z m -6.046876 0 h 4.132813 v 9 h -4.132813 z m -6.050781 0 h 4.402344 v 9 h -4.402344 z m -6.046875 0 h 4.671875 v 9 h -4.671875 z m -6.050781 0 h 4.945313 v 9 h -4.945313 z m -6.046875 0 h 5.214844 v 9 h -5.214844 z m 0 0"/>
        </g>
    </pattern>
    <clipPath id="e">
        <rect height="152" width="192"/>
    </clipPath>
    <mask id="f">
        <g filter="url(#a)">
            <rect fill-opacity="0.32" height="19.2" width="19.2" x="-1.6" y="-1.6"/>
        </g>
    </mask>
    <clipPath id="g">
        <rect height="152" width="192"/>
    </clipPath>
    <mask id="h">
        <g filter="url(#a)">
            <rect fill-opacity="0.84" height="19.2" width="19.2" x="-1.6" y="-1.6"/>
        </g>
    </mask>
    <clipPath id="i">
        <rect height="152" width="192"/>
    </clipPath>
    <mask id="j">
        <g filter="url(#a)">
            <rect fill-opacity="0.337736" height="19.2" width="19.2" x="-1.6" y="-1.6"/>
        </g>
    </mask>
    <linearGradient id="k" gradientUnits="userSpaceOnUse" x1="45.093452" x2="98.851264" y1="49.015427" y2="49.015427">
        <stop offset="0.152397" stop-color="#ffffff" stop-opacity="0"/>
        <stop offset="0.609589" stop-color="#ffffff"/>
    </linearGradient>
    <clipPath id="l">
        <rect height="152" width="192"/>
    </clipPath>
    <mask id="m">
        <g filter="url(#a)">
            <rect fill-opacity="0.8" height="19.2" width="19.2" x="-1.6" y="-1.6"/>
        </g>
    </mask>
    <clipPath id="n">
        <rect height="152" width="192"/>
    </clipPath>
    <mask id="o">
        <g filter="url(#a)">
            <rect fill-opacity="0.541509" height="19.2" width="19.2" x="-1.6" y="-1.6"/>
        </g>
    </mask>
    <clipPath id="p">
        <rect height="152" width="192"/>
    </clipPath>
    <mask id="q">
        <g filter="url(#a)">
            <rect fill-opacity="0.541509" height="19.2" width="19.2" x="-1.6" y="-1.6"/>
        </g>
    </mask>
    <clipPath id="r">
        <rect height="152" width="192"/>
    </clipPath>
    <mask id="s">
        <g filter="url(#a)">
            <rect fill-opacity="0.541509" height="19.2" width="19.2" x="-1.6" y="-1.6"/>
        </g>
    </mask>
    <clipPath id="t">
        <rect height="152" width="192"/>
    </clipPath>
    <mask id="u">
        <g filter="url(#a)">
            <rect fill-opacity="0.541509" height="19.2" width="19.2" x="-1.6" y="-1.6"/>
        </g>
    </mask>
    <clipPath id="v">
        <rect height="152" width="192"/>
    </clipPath>
    <mask id="w">
        <g filter="url(#a)">
            <rect fill-opacity="0.541509" height="19.2" width="19.2" x="-1.6" y="-1.6"/>
        </g>
    </mask>
    <clipPath id="x">
        <rect height="152" width="192"/>
    </clipPath>
    <mask id="y">
        <g filter="url(#a)">
            <rect fill-opacity="0.541509" height="19.2" width="19.2" x="-1.6" y="-1.6"/>
        </g>
    </mask>
    <clipPath id="z">
        <rect height="152" width="192"/>
    </clipPath>
    <mask id="A">
        <g filter="url(#a)">
            <rect fill-opacity="0.541509" height="19.2" width="19.2" x="-1.6" y="-1.6"/>
        </g>
    </mask>
    <clipPath id="B">
        <rect height="152" width="192"/>
    </clipPath>
    <mask id="C">
        <g filter="url(#a)">
            <rect fill-opacity="0.638548" height="19.2" width="19.2" x="-1.6" y="-1.6"/>
        </g>
    </mask>
    <mask id="D">
        <g filter="url(#a)">
            <rect fill-opacity="0.263158" height="23.04" width="23.04" x="164.48" y="12.48"/>
        </g>
    </mask>
    <clipPath id="E">
        <rect height="152" width="192"/>
    </clipPath>
    <clipPath id="F">
        <rect height="152" width="192"/>
    </clipPath>
    <path d="m 2.988281 0.261719 c -1.507812 0 -2.722656 1.210937 -2.722656 2.71875 v 10.101562 c 0 1.503907 1.214844 2.714844 2.722656 2.714844 h 10.039063 c 1.507812 0 2.722656 -1.210937 2.722656 -2.714844 v -10.101562 c 0 -1.507813 -1.214844 -2.71875 -2.722656 -2.71875 z m 5.039063 2.035156 h 0.003906 c 1.722656 0 3.414062 0.460937 4.898438 1.328125 v 0.003906 c 0.003906 0 0.003906 0 0.007812 0.003906 l -0.394531 0.679688 s -0.003907 -0.003906 -0.003907 -0.003906 l -2.277343 3.945312 c -0.691407 -0.398437 -1.472657 -0.609375 -2.269531 -0.609375 c -0.785157 0 -1.558594 0.210938 -2.242188 0.605469 l -2.261719 -3.917969 l -0.382812 -0.664062 l -0.003907 -0.011719 c 1.492188 -0.882812 3.191407 -1.351562 4.925782 -1.359375 z m 0 0"/>
    <g mask="url(#b)">
        <g clip-path="url(#e)" transform="matrix(1 0 0 1 -168 -16)">
            <path d="m 28 28.035156 h 88 c 4.417969 0 8 3.582032 8 8 v 84 c 0 4.417969 -3.582031 8 -8 8 h -88 c -4.417969 0 -8 -3.582031 -8 -8 v -84 c 0 -4.417968 3.582031 -8 8 -8 z m 0 0" fill="url(#d)"/>
        </g>
    </g>
    <g mask="url(#f)">
        <g clip-path="url(#g)" transform="matrix(1 0 0 1 -168 -16)">
            <path d="m 20.417969 184.496094 h 87.164062 c 4.375 0 7.921875 3.546875 7.921875 7.917968 v 83.171876 c 0 4.371093 -3.546875 7.917968 -7.921875 7.917968 h -87.164062 c -4.375 0 -7.921875 -3.546875 -7.921875 -7.917968 v -83.171876 c 0 -4.371093 3.546875 -7.917968 7.921875 -7.917968 z m 0 0" fill="none" stroke="#ffffff" stroke-width="0.69" transform="matrix(1 0 0 1 8 -156)"/>
        </g>
    </g>
    <g mask="url(#h)">
        <g clip-path="url(#i)" transform="matrix(1 0 0 1 -168 -16)">
            <path d="m 72.078125 32.730469 c -9.480469 0.039062 -18.777344 2.605469 -26.933594 7.441406 l 14.488281 25.09375 c 3.726563 -2.15625 7.953126 -3.304687 12.257813 -3.324219 c 4.347656 0.003906 8.621094 1.15625 12.382813 3.339844 l 14.605468 -25.296875 c -8.136718 -4.746094 -17.382812 -7.25 -26.800781 -7.253906 z m 0 0" fill="#ffffff"/>
            <path d="m 72.101562 32.773438 c -9.480468 0.035156 -18.777343 2.605468 -26.933593 7.441406 l 2.09375 3.625 c 7.511719 -4.363282 16.039062 -6.679688 24.726562 -6.71875 c 8.695313 0.003906 17.234375 2.289062 24.765625 6.625 l 2.148438 -3.71875 c -8.136719 -4.75 -17.382813 -7.25 -26.800782 -7.253906 z m 0 0" fill="#1b67c6"/>
        </g>
    </g>
    <g mask="url(#j)">
        <g clip-path="url(#l)" transform="matrix(1 0 0 1 -168 -16)">
            <path d="m 72.023438 32.738281 c -9.476563 0.039063 -18.777344 2.609375 -26.929688 7.441407 l 0.023438 0.042968 l 2.09375 3.625 l 12.371093 21.425782 c 3.726563 -2.15625 7.949219 -3.300782 12.253907 -3.324219 c 4.351562 0.003906 8.625 1.15625 12.386718 3.339843 l 12.445313 -21.554687 c 0.011719 0.007813 0.023437 0.011719 0.035156 0.019531 l 2.148437 -3.71875 c -0.011718 -0.007812 -0.023437 -0.011718 -0.035156 -0.019531 l 0.011719 -0.023437 c -8.136719 -4.746094 -17.382813 -7.246094 -26.804687 -7.253907 z m 0 0" fill="url(#k)"/>
        </g>
    </g>
    <g mask="url(#m)">
        <g clip-path="url(#n)" transform="matrix(1 0 0 1 -168 -16)">
            <path d="m 62.882812 41.875 l 2.191407 -0.375 l 3.480469 20.296875 l -2.1875 0.375 z m 0 0"/>
        </g>
    </g>
    <g mask="url(#o)">
        <g clip-path="url(#p)" transform="matrix(1 0 0 1 -168 -16)">
            <path d="m 65.03125 196.9375 c 0 0.484375 -0.390625 0.875 -0.875 0.875 c -0.480469 0 -0.871094 -0.390625 -0.871094 -0.875 c 0 -0.480469 0.390625 -0.871094 0.871094 -0.871094 c 0.484375 0 0.875 0.390625 0.875 0.871094 z m 0 0" fill="none" stroke="#000000" stroke-width="0.852873" transform="matrix(1 0 0 1 8 -156)"/>
        </g>
    </g>
    <g mask="url(#q)">
        <g clip-path="url(#r)" transform="matrix(1 0 0 1 -168 -16)">
            <path d="m 59.730469 197.199219 c 0 0.484375 -0.390625 0.875 -0.871094 0.875 c -0.484375 0 -0.875 -0.390625 -0.875 -0.875 c 0 -0.480469 0.390625 -0.871094 0.875 -0.871094 c 0.480469 0 0.871094 0.390625 0.871094 0.871094 z m 0 0" fill="none" stroke="#000000" stroke-width="0.852873" transform="matrix(1 0 0 1 8 -156)"/>
        </g>
    </g>
    <g mask="url(#s)">
        <g clip-path="url(#t)" transform="matrix(1 0 0 1 -168 -16)">
            <path d="m 70.292969 197.199219 c 0 0.484375 -0.390625 0.875 -0.871094 0.875 c -0.484375 0 -0.875 -0.390625 -0.875 -0.875 c 0 -0.480469 0.390625 -0.871094 0.875 -0.871094 c 0.480469 0 0.871094 0.390625 0.871094 0.871094 z m 0 0" fill="none" stroke="#000000" stroke-width="0.852873" transform="matrix(1 0 0 1 8 -156)"/>
        </g>
    </g>
    <g mask="url(#u)">
        <g clip-path="url(#v)" transform="matrix(1 0 0 1 -168 -16)">
            <path d="m 75.667969 198.074219 c 0 0.484375 -0.390625 0.875 -0.871094 0.875 c -0.484375 0 -0.875 -0.390625 -0.875 -0.875 c 0 -0.480469 0.390625 -0.871094 0.875 -0.871094 c 0.480469 0 0.871094 0.390625 0.871094 0.871094 z m 0 0" fill="none" stroke="#000000" stroke-width="0.852873" transform="matrix(1 0 0 1 8 -156)"/>
        </g>
    </g>
    <g mask="url(#w)">
        <g clip-path="url(#x)" transform="matrix(1 0 0 1 -168 -16)">
            <path d="m 80.972656 199.878906 c 0 0.480469 -0.394531 0.871094 -0.875 0.871094 c -0.484375 0 -0.875 -0.390625 -0.875 -0.871094 c 0 -0.484375 0.390625 -0.875 0.875 -0.875 c 0.480469 0 0.875 0.390625 0.875 0.875 z m 0 0" fill="none" stroke="#000000" stroke-width="0.852873" transform="matrix(1 0 0 1 8 -156)"/>
        </g>
    </g>
    <g mask="url(#y)">
        <g clip-path="url(#z)" transform="matrix(1 0 0 1 -168 -16)">
            <path d="m 49.007812 199.921875 c 0 0.5 -0.40625 0.90625 -0.90625 0.90625 c -0.503906 0 -0.90625 -0.40625 -0.90625 -0.90625 s 0.402344 -0.90625 0.90625 -0.90625 c 0.5 0 0.90625 0.40625 0.90625 0.90625 z m 0 0" fill="none" stroke="#000000" stroke-width="0.786948" transform="matrix(1 0 0 1 8 -156)"/>
        </g>
    </g>
    <g mask="url(#A)">
        <g clip-path="url(#B)" transform="matrix(1 0 0 1 -168 -16)">
            <path d="m 54.230469 198.136719 c 0 0.484375 -0.390625 0.875 -0.871094 0.875 c -0.484375 0 -0.875 -0.390625 -0.875 -0.875 c 0 -0.480469 0.390625 -0.871094 0.875 -0.871094 c 0.480469 0 0.871094 0.390625 0.871094 0.871094 z m 0 0" fill="none" stroke="#000000" stroke-width="0.852873" transform="matrix(1 0 0 1 8 -156)"/>
        </g>
    </g>
    <g mask="url(#C)">
        <g clip-path="url(#F)" transform="matrix(1 0 0 1 -168 -16)">
            <g mask="url(#D)">
                <g clip-path="url(#E)">
                    <path d="m 33.234375 111.167969 v -25.9375 h 10.027344 c 1.835937 0 3.390625 0.285156 4.667969 0.851562 c 1.285156 0.558594 2.269531 1.339844 2.941406 2.351563 c 0.671875 0.996094 1.007812 2.175781 1.007812 3.535156 c 0 0.996094 -0.183594 1.871094 -0.554687 2.625 c -0.359375 0.757812 -0.878907 1.390625 -1.550781 1.898438 c -0.671876 0.511718 -1.472657 0.894531 -2.402344 1.148437 v 0.035156 c 1.03125 0.117188 1.960937 0.429688 2.785156 0.941407 c 0.835938 0.511718 1.496094 1.207031 1.984375 2.089843 c 0.488281 0.871094 0.730469 1.925781 0.730469 3.167969 c 0 1.449219 -0.347656 2.726562 -1.042969 3.828125 c -0.683594 1.09375 -1.707031 1.945313 -3.0625 2.558594 c -1.359375 0.605469 -3.042969 0.90625 -5.050781 0.90625 z m 4.527344 -3.742188 h 5.464843 c 1.566407 0 2.78125 -0.320312 3.640626 -0.957031 c 0.859374 -0.640625 1.289062 -1.554688 1.289062 -2.75 c 0 -0.8125 -0.191406 -1.511719 -0.574219 -2.089844 c -0.375 -0.582031 -0.917969 -1.027344 -1.636719 -1.339844 c -0.722656 -0.3125 -1.589843 -0.472656 -2.613281 -0.472656 h -5.570312 z m 0 -11.210937 h 5.292969 c 0.882812 0 1.636718 -0.144532 2.261718 -0.433594 c 0.640625 -0.304688 1.125 -0.722656 1.464844 -1.253906 c 0.335938 -0.546875 0.503906 -1.191406 0.503906 -1.933594 c 0 -1.113281 -0.378906 -1.996094 -1.132812 -2.644531 c -0.742188 -0.652344 -1.773438 -0.976563 -3.097656 -0.976563 h -5.292969 z m 26.445312 14.953125 v -25.9375 h 6.613281 l 5.050782 13.628906 c 0.171875 0.5 0.371094 1.105469 0.589844 1.8125 c 0.230468 0.707031 0.46875 1.449219 0.714843 2.226563 c 0.242188 0.777343 0.46875 1.515624 0.679688 2.210937 c 0.21875 0.699219 0.394531 1.277344 0.519531 1.742187 h -1.128906 c 0.125 -0.464843 0.292968 -1.042968 0.503906 -1.742187 c 0.207031 -0.695313 0.433594 -1.433594 0.679688 -2.210937 c 0.242187 -0.777344 0.472656 -1.519532 0.695312 -2.226563 c 0.230469 -0.707031 0.429688 -1.3125 0.589844 -1.8125 l 4.964844 -13.628906 h 6.648437 v 25.9375 h -4.527344 v -13.230469 c 0 -0.566406 0.007813 -1.222656 0.019531 -1.964844 c 0.011719 -0.757812 0.027344 -1.546875 0.050782 -2.371094 c 0.035156 -0.832031 0.058594 -1.675781 0.070312 -2.523437 c 0.023438 -0.859375 0.039063 -1.675781 0.050782 -2.453125 h 0.574218 c -0.277344 0.882812 -0.554687 1.773438 -0.835937 2.679688 c -0.277344 0.894531 -0.550781 1.757812 -0.816407 2.59375 c -0.265624 0.824218 -0.515624 1.585937 -0.75 2.28125 c -0.21875 0.683593 -0.410156 1.269531 -0.574218 1.757812 l -4.941406 13.230469 h -3.761719 l -4.980469 -13.230469 c -0.160156 -0.488281 -0.363281 -1.074219 -0.609375 -1.757812 c -0.230469 -0.695313 -0.480469 -1.457032 -0.746094 -2.28125 c -0.269531 -0.835938 -0.546875 -1.699219 -0.835937 -2.59375 c -0.289063 -0.90625 -0.582032 -1.796876 -0.871094 -2.679688 h 0.695312 c 0.023438 0.777344 0.042969 1.59375 0.054688 2.453125 c 0.023438 0.847656 0.046875 1.691406 0.066406 2.523437 c 0.023438 0.824219 0.042969 1.613282 0.054688 2.371094 c 0.011718 0.742188 0.015625 1.398438 0.015625 1.964844 v 13.230469 z m 44.09375 -25.9375 v 25.9375 h -4.59375 v -25.9375 z m 0 0"/>
                </g>
            </g>
            <path d="m 34.40625 112.042969 v -25.941407 h 10.027344 c 1.832031 0 3.386718 0.285157 4.664062 0.855469 c 1.289063 0.554688 2.269532 1.339844 2.941406 2.347657 c 0.671876 1 1.011719 2.175781 1.011719 3.535156 c 0 0.996094 -0.1875 1.875 -0.558593 2.628906 c -0.359376 0.753906 -0.875 1.386719 -1.550782 1.898438 c -0.671875 0.507812 -1.472656 0.890624 -2.402344 1.148437 v 0.035156 c 1.035157 0.113281 1.964844 0.429688 2.785157 0.9375 c 0.835937 0.511719 1.5 1.207031 1.984375 2.089844 c 0.488281 0.871094 0.734375 1.925781 0.734375 3.167969 c 0 1.453125 -0.347657 2.726562 -1.046875 3.832031 c -0.683594 1.089844 -1.703125 1.941406 -3.0625 2.558594 c -1.359375 0.601562 -3.042969 0.90625 -5.046875 0.90625 z m 4.523438 -3.746094 h 5.46875 c 1.566406 0 2.777343 -0.316406 3.636718 -0.957031 c 0.859375 -0.636719 1.289063 -1.554688 1.289063 -2.75 c 0 -0.8125 -0.191407 -1.507813 -0.574219 -2.089844 c -0.371094 -0.578125 -0.917969 -1.027344 -1.636719 -1.339844 s -1.589843 -0.46875 -2.613281 -0.46875 h -5.570312 z m 0 -11.210937 h 5.292968 c 0.882813 0 1.636719 -0.144532 2.265625 -0.433594 c 0.636719 -0.300782 1.125 -0.71875 1.460938 -1.253906 c 0.335937 -0.546876 0.503906 -1.191407 0.503906 -1.933594 c 0 -1.113282 -0.375 -1.996094 -1.132813 -2.644532 c -0.742187 -0.648437 -1.773437 -0.976562 -3.097656 -0.976562 h -5.292968 z m 26.445312 14.957031 v -25.941407 h 6.613281 l 5.050781 13.632813 c 0.171876 0.496094 0.371094 1.101563 0.589844 1.808594 c 0.234375 0.707031 0.472656 1.453125 0.714844 2.230469 c 0.242188 0.777343 0.46875 1.511718 0.679688 2.210937 c 0.21875 0.695313 0.394531 1.273437 0.523437 1.738281 h -1.132813 c 0.128907 -0.464844 0.296876 -1.042968 0.503907 -1.738281 c 0.210937 -0.699219 0.4375 -1.433594 0.679687 -2.210937 c 0.242188 -0.777344 0.476563 -1.523438 0.695313 -2.230469 c 0.234375 -0.707031 0.429687 -1.3125 0.59375 -1.808594 l 4.960937 -13.632813 h 6.648438 v 25.941407 h -4.523438 v -13.230469 c 0 -0.570312 0.003906 -1.226562 0.015625 -1.96875 c 0.011719 -0.753906 0.027344 -1.542969 0.050781 -2.367188 c 0.035157 -0.835937 0.058594 -1.675781 0.070313 -2.523437 c 0.023437 -0.859375 0.042969 -1.679687 0.054687 -2.457031 h 0.574219 c -0.28125 0.882812 -0.558593 1.777344 -0.835937 2.683594 c -0.28125 0.890624 -0.550782 1.757812 -0.820313 2.59375 c -0.265625 0.824218 -0.515625 1.582031 -0.746093 2.277343 c -0.222657 0.6875 -0.414063 1.273438 -0.574219 1.761719 l -4.945313 13.230469 h -3.761718 l -4.976563 -13.230469 c -0.164063 -0.488281 -0.367187 -1.074219 -0.609375 -1.761719 c -0.234375 -0.695312 -0.484375 -1.453125 -0.75 -2.277343 c -0.265625 -0.835938 -0.546875 -1.703126 -0.835938 -2.59375 c -0.289062 -0.90625 -0.578124 -1.800782 -0.871093 -2.683594 h 0.699219 c 0.023437 0.777344 0.039062 1.597656 0.050781 2.457031 c 0.023437 0.847656 0.046875 1.6875 0.070312 2.523437 c 0.023438 0.824219 0.039063 1.613282 0.050781 2.367188 c 0.011719 0.742188 0.019532 1.398438 0.019532 1.96875 v 13.230469 z m 44.09375 -25.941407 v 25.941407 h -4.59375 v -25.941407 z m 0 0" fill="#6aa4ea"/>
        </g>
    </g>
</svg>
