<?xml version="1.0" encoding="UTF-8"?>
<svg height="128px" viewBox="0 0 128 128" width="128px" xmlns="http://www.w3.org/2000/svg" xmlns:xlink="http://www.w3.org/1999/xlink">
    <filter id="a" height="100%" width="100%" x="0%" y="0%">
        <feColorMatrix color-interpolation-filters="sRGB" values="0 0 0 0 1 0 0 0 0 1 0 0 0 0 1 0 0 0 1 0"/>
    </filter>
    <linearGradient id="b" gradientTransform="matrix(0.232143 0 0 0.328947 -8.56691 263.826965)" gradientUnits="userSpaceOnUse" x1="88.595886" x2="536.595886" y1="-449.394012" y2="-449.394012">
        <stop offset="0" stop-color="#165bac"/>
        <stop offset="0.0384615" stop-color="#7daeed"/>
        <stop offset="0.0768555" stop-color="#165aac"/>
        <stop offset="0.923077" stop-color="#165bac"/>
        <stop offset="0.961538" stop-color="#7daeed"/>
        <stop offset="1" stop-color="#165bac"/>
    </linearGradient>
    <mask id="c">
        <g filter="url(#a)">
            <rect fill-opacity="0.113208" height="153.6" width="153.6" x="-12.8" y="-12.8"/>
        </g>
    </mask>
    <clipPath id="d">
        <rect height="9" width="115"/>
    </clipPath>
    <pattern id="e" height="9" patternTransform="matrix(1.003653 0 0 1.004373 8 16.094986)" patternUnits="userSpaceOnUse" viewBox="0 0 115 9" width="115">
        <g clip-path="url(#d)">
            <path d="m 114.921875 0 h 0.078125 v 9 h -0.078125 z m -6.046875 0 h 0.347656 v 9 h -0.347656 z m -6.046875 0 h 0.617187 v 9 h -0.617187 z m -6.050781 0 h 0.886718 v 9 h -0.886718 z m -6.046875 0 h 1.15625 v 9 h -1.15625 z m -6.050781 0 h 1.429687 v 9 h -1.429687 z m -6.046876 0 h 1.699219 v 9 h -1.699219 z m -6.050781 0 h 1.96875 v 9 h -1.96875 z m -6.046875 0 h 2.238282 v 9 h -2.238282 z m -6.050781 0 h 2.511719 v 9 h -2.511719 z m -6.046875 0 h 2.78125 v 9 h -2.78125 z m -6.046875 0 h 3.046875 v 9 h -3.046875 z m -6.050781 0 h 3.320312 v 9 h -3.320312 z m -6.046875 0 h 3.589843 v 9 h -3.589843 z m -6.050781 0 h 3.863281 v 9 h -3.863281 z m -6.046876 0 h 4.132813 v 9 h -4.132813 z m -6.050781 0 h 4.402344 v 9 h -4.402344 z m -6.046875 0 h 4.671875 v 9 h -4.671875 z m -6.050781 0 h 4.945313 v 9 h -4.945313 z m -6.046875 0 h 5.214844 v 9 h -5.214844 z m 0 0"/>
        </g>
    </pattern>
    <clipPath id="f">
        <rect height="152" width="192"/>
    </clipPath>
    <mask id="g">
        <g filter="url(#a)">
            <rect fill-opacity="0.32" height="153.6" width="153.6" x="-12.8" y="-12.8"/>
        </g>
    </mask>
    <clipPath id="h">
        <rect height="152" width="192"/>
    </clipPath>
    <mask id="i">
        <g filter="url(#a)">
            <rect fill-opacity="0.84" height="153.6" width="153.6" x="-12.8" y="-12.8"/>
        </g>
    </mask>
    <clipPath id="j">
        <rect height="152" width="192"/>
    </clipPath>
    <mask id="k">
        <g filter="url(#a)">
            <rect fill-opacity="0.337736" height="153.6" width="153.6" x="-12.8" y="-12.8"/>
        </g>
    </mask>
    <linearGradient id="l" gradientUnits="userSpaceOnUse" x1="45.093452" x2="98.851264" y1="49.015427" y2="49.015427">
        <stop offset="0.152397" stop-color="#ffffff" stop-opacity="0"/>
        <stop offset="0.609589" stop-color="#ffffff"/>
    </linearGradient>
    <clipPath id="m">
        <rect height="152" width="192"/>
    </clipPath>
    <mask id="n">
        <g filter="url(#a)">
            <rect fill-opacity="0.8" height="153.6" width="153.6" x="-12.8" y="-12.8"/>
        </g>
    </mask>
    <clipPath id="o">
        <rect height="152" width="192"/>
    </clipPath>
    <mask id="p">
        <g filter="url(#a)">
            <rect fill-opacity="0.541509" height="153.6" width="153.6" x="-12.8" y="-12.8"/>
        </g>
    </mask>
    <clipPath id="q">
        <rect height="152" width="192"/>
    </clipPath>
    <mask id="r">
        <g filter="url(#a)">
            <rect fill-opacity="0.541509" height="153.6" width="153.6" x="-12.8" y="-12.8"/>
        </g>
    </mask>
    <clipPath id="s">
        <rect height="152" width="192"/>
    </clipPath>
    <mask id="t">
        <g filter="url(#a)">
            <rect fill-opacity="0.541509" height="153.6" width="153.6" x="-12.8" y="-12.8"/>
        </g>
    </mask>
    <clipPath id="u">
        <rect height="152" width="192"/>
    </clipPath>
    <mask id="v">
        <g filter="url(#a)">
            <rect fill-opacity="0.541509" height="153.6" width="153.6" x="-12.8" y="-12.8"/>
        </g>
    </mask>
    <clipPath id="w">
        <rect height="152" width="192"/>
    </clipPath>
    <mask id="x">
        <g filter="url(#a)">
            <rect fill-opacity="0.541509" height="153.6" width="153.6" x="-12.8" y="-12.8"/>
        </g>
    </mask>
    <clipPath id="y">
        <rect height="152" width="192"/>
    </clipPath>
    <mask id="z">
        <g filter="url(#a)">
            <rect fill-opacity="0.541509" height="153.6" width="153.6" x="-12.8" y="-12.8"/>
        </g>
    </mask>
    <clipPath id="A">
        <rect height="152" width="192"/>
    </clipPath>
    <mask id="B">
        <g filter="url(#a)">
            <rect fill-opacity="0.541509" height="153.6" width="153.6" x="-12.8" y="-12.8"/>
        </g>
    </mask>
    <clipPath id="C">
        <rect height="152" width="192"/>
    </clipPath>
    <mask id="D">
        <g filter="url(#a)">
            <rect fill-opacity="0.205761" height="153.6" width="153.6" x="-12.8" y="-12.8"/>
        </g>
    </mask>
    <clipPath id="E">
        <rect height="152" width="192"/>
    </clipPath>
    <mask id="F">
        <g filter="url(#a)">
            <rect fill-opacity="0.742033" height="153.6" width="153.6" x="-12.8" y="-12.8"/>
        </g>
    </mask>
    <clipPath id="G">
        <rect height="152" width="192"/>
    </clipPath>
    <path d="m 19.515625 11.425781 h 88.984375 c 4.464844 0 8.085938 3.765625 8.085938 8.410157 v 88.292968 c 0 4.644532 -3.621094 8.410156 -8.085938 8.410156 h -88.984375 c -4.46875 0 -8.089844 -3.765624 -8.089844 -8.410156 v -88.292968 c 0 -4.644532 3.621094 -8.410157 8.089844 -8.410157 z m 0 0"/>
    <path d="m 20 16 h 88 c 4.417969 0 8 3.582031 8 8 v 84 c 0 4.417969 -3.582031 8 -8 8 h -88 c -4.417969 0 -8 -3.582031 -8 -8 v -84 c 0 -4.417969 3.582031 -8 8 -8 z m 0 0" fill="url(#b)"/>
    <path d="m 20 12 h 88 c 4.417969 0 8 3.558594 8 7.945312 v 83.433594 c 0 4.386719 -3.582031 7.945313 -8 7.945313 h -88 c -4.417969 0 -8 -3.558594 -8 -7.945313 v -83.433594 c 0 -4.386718 3.582031 -7.945312 8 -7.945312 z m 0 0" fill="#3584e4"/>
    <g mask="url(#c)">
        <g clip-path="url(#f)" transform="matrix(1 0 0 1 -8 -16)">
            <path d="m 28 28.035156 h 88 c 4.417969 0 8 3.550782 8 7.933594 v 83.339844 c 0 4.382812 -3.582031 7.9375 -8 7.9375 h -88 c -4.417969 0 -8 -3.554688 -8 -7.9375 v -83.339844 c 0 -4.382812 3.582031 -7.933594 8 -7.933594 z m 0 0" fill="url(#e)"/>
        </g>
    </g>
    <g mask="url(#g)">
        <g clip-path="url(#h)" transform="matrix(1 0 0 1 -8 -16)">
            <path d="m 20.417969 184.496094 h 87.164062 c 4.375 0 7.921875 3.523437 7.921875 7.875 v 82.707031 c 0 4.347656 -3.546875 7.875 -7.921875 7.875 h -87.164062 c -4.375 0 -7.921875 -3.527344 -7.921875 -7.875 v -82.707031 c 0 -4.351563 3.546875 -7.875 7.921875 -7.875 z m 0 0" fill="none" stroke="#ffffff" stroke-width="0.688089" transform="matrix(1 0 0 1 8 -156)"/>
        </g>
    </g>
    <g mask="url(#i)">
        <g clip-path="url(#j)" transform="matrix(1 0 0 1 -8 -16)">
            <path d="m 72.078125 32.730469 c -9.480469 0.039062 -18.777344 2.605469 -26.933594 7.441406 l 14.488281 25.09375 c 3.726563 -2.15625 7.953126 -3.304687 12.257813 -3.324219 c 4.347656 0.003906 8.621094 1.15625 12.382813 3.339844 l 14.605468 -25.296875 c -8.136718 -4.746094 -17.382812 -7.25 -26.800781 -7.253906 z m 0 0" fill="#ffffff"/>
            <path d="m 72.101562 32.773438 c -9.480468 0.035156 -18.777343 2.605468 -26.933593 7.441406 l 2.09375 3.625 c 7.511719 -4.363282 16.039062 -6.679688 24.726562 -6.71875 c 8.695313 0.003906 17.234375 2.289062 24.765625 6.625 l 2.148438 -3.71875 c -8.136719 -4.75 -17.382813 -7.25 -26.800782 -7.253906 z m 0 0" fill="#1b67c6"/>
        </g>
    </g>
    <g mask="url(#k)">
        <g clip-path="url(#m)" transform="matrix(1 0 0 1 -8 -16)">
            <path d="m 72.023438 32.738281 c -9.476563 0.039063 -18.777344 2.609375 -26.929688 7.441407 l 0.023438 0.042968 l 2.09375 3.625 l 12.371093 21.425782 c 3.726563 -2.15625 7.949219 -3.300782 12.253907 -3.324219 c 4.351562 0.003906 8.625 1.15625 12.386718 3.339843 l 12.445313 -21.554687 c 0.011719 0.007813 0.023437 0.011719 0.035156 0.019531 l 2.148437 -3.71875 c -0.011718 -0.007812 -0.023437 -0.011718 -0.035156 -0.019531 l 0.011719 -0.023437 c -8.136719 -4.746094 -17.382813 -7.246094 -26.804687 -7.253907 z m 0 0" fill="url(#l)"/>
        </g>
    </g>
    <g mask="url(#n)">
        <g clip-path="url(#o)" transform="matrix(1 0 0 1 -8 -16)">
            <path d="m 62.882812 41.875 l 2.191407 -0.375 l 3.480469 20.296875 l -2.1875 0.375 z m 0 0"/>
        </g>
    </g>
    <g mask="url(#p)">
        <g clip-path="url(#q)" transform="matrix(1 0 0 1 -8 -16)">
            <path d="m 65.03125 196.9375 c 0 0.484375 -0.390625 0.875 -0.875 0.875 c -0.480469 0 -0.871094 -0.390625 -0.871094 -0.875 c 0 -0.480469 0.390625 -0.871094 0.871094 -0.871094 c 0.484375 0 0.875 0.390625 0.875 0.871094 z m 0 0" fill="none" stroke="#000000" stroke-width="0.852873" transform="matrix(1 0 0 1 8 -156)"/>
        </g>
    </g>
    <g mask="url(#r)">
        <g clip-path="url(#s)" transform="matrix(1 0 0 1 -8 -16)">
            <path d="m 59.730469 197.199219 c 0 0.484375 -0.390625 0.875 -0.871094 0.875 c -0.484375 0 -0.875 -0.390625 -0.875 -0.875 c 0 -0.480469 0.390625 -0.871094 0.875 -0.871094 c 0.480469 0 0.871094 0.390625 0.871094 0.871094 z m 0 0" fill="none" stroke="#000000" stroke-width="0.852873" transform="matrix(1 0 0 1 8 -156)"/>
        </g>
    </g>
    <g mask="url(#t)">
        <g clip-path="url(#u)" transform="matrix(1 0 0 1 -8 -16)">
            <path d="m 70.292969 197.199219 c 0 0.484375 -0.390625 0.875 -0.871094 0.875 c -0.484375 0 -0.875 -0.390625 -0.875 -0.875 c 0 -0.480469 0.390625 -0.871094 0.875 -0.871094 c 0.480469 0 0.871094 0.390625 0.871094 0.871094 z m 0 0" fill="none" stroke="#000000" stroke-width="0.852873" transform="matrix(1 0 0 1 8 -156)"/>
        </g>
    </g>
    <g mask="url(#v)">
        <g clip-path="url(#w)" transform="matrix(1 0 0 1 -8 -16)">
            <path d="m 75.667969 198.074219 c 0 0.484375 -0.390625 0.875 -0.871094 0.875 c -0.484375 0 -0.875 -0.390625 -0.875 -0.875 c 0 -0.480469 0.390625 -0.871094 0.875 -0.871094 c 0.480469 0 0.871094 0.390625 0.871094 0.871094 z m 0 0" fill="none" stroke="#000000" stroke-width="0.852873" transform="matrix(1 0 0 1 8 -156)"/>
        </g>
    </g>
    <g mask="url(#x)">
        <g clip-path="url(#y)" transform="matrix(1 0 0 1 -8 -16)">
            <path d="m 80.972656 199.878906 c 0 0.480469 -0.394531 0.871094 -0.875 0.871094 c -0.484375 0 -0.875 -0.390625 -0.875 -0.871094 c 0 -0.484375 0.390625 -0.875 0.875 -0.875 c 0.480469 0 0.875 0.390625 0.875 0.875 z m 0 0" fill="none" stroke="#000000" stroke-width="0.852873" transform="matrix(1 0 0 1 8 -156)"/>
        </g>
    </g>
    <g mask="url(#z)">
        <g clip-path="url(#A)" transform="matrix(1 0 0 1 -8 -16)">
            <path d="m 49.007812 199.921875 c 0 0.5 -0.40625 0.90625 -0.90625 0.90625 c -0.503906 0 -0.90625 -0.40625 -0.90625 -0.90625 s 0.402344 -0.90625 0.90625 -0.90625 c 0.5 0 0.90625 0.40625 0.90625 0.90625 z m 0 0" fill="none" stroke="#000000" stroke-width="0.786948" transform="matrix(1 0 0 1 8 -156)"/>
        </g>
    </g>
    <g mask="url(#B)">
        <g clip-path="url(#C)" transform="matrix(1 0 0 1 -8 -16)">
            <path d="m 54.230469 198.136719 c 0 0.484375 -0.390625 0.875 -0.871094 0.875 c -0.484375 0 -0.875 -0.390625 -0.875 -0.875 c 0 -0.480469 0.390625 -0.871094 0.875 -0.871094 c 0.480469 0 0.871094 0.390625 0.871094 0.871094 z m 0 0" fill="none" stroke="#000000" stroke-width="0.852873" transform="matrix(1 0 0 1 8 -156)"/>
        </g>
    </g>
    <g mask="url(#D)">
        <g clip-path="url(#E)" transform="matrix(1 0 0 1 -8 -16)">
            <path d="m 33.234375 110.183594 v -25.9375 h 10.027344 c 1.835937 0 3.390625 0.28125 4.667969 0.851562 c 1.285156 0.558594 2.269531 1.339844 2.941406 2.351563 c 0.671875 0.996093 1.007812 2.175781 1.007812 3.53125 c 0 1 -0.183594 1.875 -0.554687 2.628906 c -0.359375 0.753906 -0.878907 1.386719 -1.550781 1.898437 c -0.671876 0.511719 -1.472657 0.894532 -2.402344 1.148438 v 0.035156 c 1.03125 0.117188 1.960937 0.429688 2.785156 0.941406 c 0.835938 0.511719 1.496094 1.207032 1.984375 2.089844 c 0.488281 0.867188 0.730469 1.925782 0.730469 3.167969 c 0 1.449219 -0.347656 2.726563 -1.042969 3.828125 c -0.683594 1.089844 -1.707031 1.945312 -3.0625 2.558594 c -1.359375 0.605468 -3.042969 0.90625 -5.050781 0.90625 z m 4.527344 -3.742188 h 5.464843 c 1.566407 0 2.78125 -0.320312 3.640626 -0.957031 c 0.859374 -0.640625 1.289062 -1.554687 1.289062 -2.75 c 0 -0.8125 -0.191406 -1.511719 -0.574219 -2.089844 c -0.375 -0.582031 -0.917969 -1.027343 -1.636719 -1.339843 c -0.722656 -0.316407 -1.589843 -0.472657 -2.613281 -0.472657 h -5.570312 z m 0 -11.210937 h 5.292969 c 0.882812 0 1.636718 -0.144531 2.261718 -0.4375 c 0.640625 -0.300781 1.125 -0.71875 1.464844 -1.25 c 0.335938 -0.546875 0.503906 -1.191407 0.503906 -1.933594 c 0 -1.113281 -0.378906 -1.996094 -1.132812 -2.648437 c -0.742188 -0.648438 -1.773438 -0.972657 -3.097656 -0.972657 h -5.292969 z m 26.445312 14.953125 v -25.9375 h 6.613281 l 5.050782 13.628906 c 0.171875 0.5 0.371094 1.101562 0.589844 1.8125 c 0.230468 0.707031 0.46875 1.449219 0.714843 2.226562 c 0.242188 0.777344 0.46875 1.515626 0.679688 2.210938 c 0.21875 0.695312 0.394531 1.277344 0.519531 1.742188 h -1.128906 c 0.125 -0.464844 0.292968 -1.046876 0.503906 -1.742188 c 0.207031 -0.695312 0.433594 -1.433594 0.679688 -2.210938 c 0.242187 -0.777343 0.472656 -1.519531 0.695312 -2.226562 c 0.230469 -0.710938 0.429688 -1.3125 0.589844 -1.8125 l 4.964844 -13.628906 h 6.648437 v 25.9375 h -4.527344 v -13.230469 c 0 -0.570313 0.007813 -1.222656 0.019531 -1.96875 c 0.011719 -0.753906 0.027344 -1.542969 0.050782 -2.367187 c 0.035156 -0.835938 0.058594 -1.675782 0.070312 -2.523438 c 0.023438 -0.859375 0.039063 -1.675781 0.050782 -2.453125 h 0.574218 c -0.277344 0.882813 -0.554687 1.773437 -0.835937 2.679687 c -0.277344 0.894532 -0.550781 1.757813 -0.816407 2.59375 c -0.265624 0.824219 -0.515624 1.585938 -0.75 2.28125 c -0.21875 0.683594 -0.410156 1.269532 -0.574218 1.757813 l -4.941406 13.230469 h -3.761719 l -4.980469 -13.230469 c -0.160156 -0.488281 -0.363281 -1.074219 -0.609375 -1.757813 c -0.230469 -0.695312 -0.480469 -1.457031 -0.746094 -2.28125 c -0.269531 -0.835937 -0.546875 -1.699218 -0.835937 -2.59375 c -0.289063 -0.90625 -0.582032 -1.796874 -0.871094 -2.679687 h 0.695312 c 0.023438 0.777344 0.042969 1.59375 0.054688 2.453125 c 0.023438 0.847656 0.046875 1.6875 0.066406 2.523438 c 0.023438 0.824218 0.042969 1.613281 0.054688 2.367187 c 0.011718 0.746094 0.015625 1.398437 0.015625 1.96875 v 13.230469 z m 44.09375 -25.9375 v 25.9375 h -4.59375 v -25.9375 z m 0 0"/>
        </g>
    </g>
    <g mask="url(#F)">
        <g clip-path="url(#G)" transform="matrix(1 0 0 1 -8 -16)">
            <path d="m 34.40625 111.054688 v -25.9375 h 10.027344 c 1.832031 0 3.386718 0.285156 4.664062 0.851562 c 1.289063 0.558594 2.269532 1.34375 2.941406 2.351562 c 0.671876 1 1.011719 2.175782 1.011719 3.535157 c 0 0.996093 -0.1875 1.875 -0.558593 2.628906 c -0.359376 0.753906 -0.875 1.386719 -1.550782 1.898437 c -0.671875 0.507813 -1.472656 0.890626 -2.402344 1.148438 v 0.035156 c 1.035157 0.113282 1.960938 0.425782 2.785157 0.9375 c 0.835937 0.511719 1.5 1.207032 1.984375 2.089844 c 0.488281 0.871094 0.734375 1.925781 0.734375 3.167969 c 0 1.449219 -0.347657 2.726562 -1.046875 3.832031 c -0.683594 1.089844 -1.703125 1.941406 -3.0625 2.558594 c -1.359375 0.601562 -3.042969 0.902344 -5.046875 0.902344 z m 4.523438 -3.742188 h 5.46875 c 1.566406 0 2.777343 -0.316406 3.636718 -0.957031 c 0.859375 -0.636719 1.289063 -1.554688 1.289063 -2.75 c 0 -0.8125 -0.191407 -1.507813 -0.574219 -2.089844 c -0.371094 -0.578125 -0.917969 -1.027344 -1.636719 -1.339844 s -1.589843 -0.46875 -2.613281 -0.46875 h -5.570312 z m 0 -11.210938 h 5.292968 c 0.882813 0 1.636719 -0.144531 2.265625 -0.433593 c 0.636719 -0.300781 1.125 -0.71875 1.460938 -1.253907 c 0.335937 -0.546874 0.503906 -1.191406 0.503906 -1.933593 c 0 -1.113281 -0.375 -1.996094 -1.132813 -2.644531 c -0.742187 -0.652344 -1.773437 -0.976563 -3.097656 -0.976563 h -5.292968 z m 26.445312 14.953126 v -25.9375 h 6.613281 l 5.050781 13.632812 c 0.171876 0.496094 0.371094 1.101562 0.589844 1.808594 c 0.234375 0.707031 0.472656 1.449218 0.714844 2.230468 c 0.242188 0.777344 0.46875 1.511719 0.679688 2.210938 c 0.21875 0.695312 0.394531 1.273438 0.523437 1.738281 h -1.132813 c 0.128907 -0.464843 0.296876 -1.042969 0.503907 -1.738281 c 0.210937 -0.699219 0.4375 -1.433594 0.679687 -2.210938 c 0.242188 -0.78125 0.476563 -1.523437 0.695313 -2.230468 c 0.234375 -0.707032 0.429687 -1.3125 0.59375 -1.808594 l 4.960937 -13.632812 h 6.648438 v 25.9375 h -4.523438 v -13.230469 c 0 -0.566407 0.003906 -1.222657 0.015625 -1.964844 c 0.011719 -0.753906 0.027344 -1.542969 0.050781 -2.367187 c 0.035157 -0.835938 0.058594 -1.679688 0.070313 -2.523438 c 0.023437 -0.859375 0.042969 -1.679688 0.054687 -2.457031 h 0.574219 c -0.28125 0.882812 -0.558593 1.777343 -0.835937 2.679687 c -0.28125 0.894532 -0.550782 1.761719 -0.820313 2.59375 c -0.265625 0.824219 -0.515625 1.585938 -0.746093 2.28125 c -0.222657 0.6875 -0.414063 1.273438 -0.574219 1.757813 l -4.945313 13.230469 h -3.761718 l -4.976563 -13.230469 c -0.164063 -0.484375 -0.367187 -1.070313 -0.609375 -1.757813 c -0.234375 -0.695312 -0.484375 -1.457031 -0.75 -2.28125 c -0.265625 -0.832031 -0.546875 -1.699218 -0.835938 -2.59375 c -0.289062 -0.902344 -0.578124 -1.796875 -0.871093 -2.679687 h 0.699219 c 0.023437 0.777343 0.039062 1.597656 0.050781 2.457031 c 0.023437 0.84375 0.046875 1.6875 0.070312 2.523438 c 0.023438 0.824218 0.039063 1.613281 0.050781 2.367187 c 0.011719 0.742187 0.019532 1.398437 0.019532 1.964844 v 13.230469 z m 44.09375 -25.9375 v 25.9375 h -4.59375 v -25.9375 z m 0 0" fill="#acd2f0"/>
        </g>
    </g>
</svg>
