<?xml version="1.0" encoding="UTF-8" standalone="no"?>
<!-- Generator: Adobe Illustrator 24.3.0, SVG Export Plug-In . SVG Version: 6.00 Build 0)  -->

<svg
   version="1.1"
   id="Layer_1"
   x="0px"
   y="0px"
   viewBox="0 0 513 153"
   xml:space="preserve"
   sodipodi:docname="Install on Linux.svg"
   inkscape:version="1.4.2 (ebf0e940d0, 2025-05-08)"
   width="513"
   height="153"
   xmlns:inkscape="http://www.inkscape.org/namespaces/inkscape"
   xmlns:sodipodi="http://sodipodi.sourceforge.net/DTD/sodipodi-0.dtd"
   xmlns="http://www.w3.org/2000/svg"
   xmlns:svg="http://www.w3.org/2000/svg"><defs
   id="defs1">

























</defs><sodipodi:namedview
   id="namedview1"
   pagecolor="#ffffff"
   bordercolor="#000000"
   borderopacity="0.25"
   inkscape:showpageshadow="2"
   inkscape:pageopacity="0.0"
   inkscape:pagecheckerboard="0"
   inkscape:deskcolor="#d1d1d1"
   inkscape:zoom="3.5546874"
   inkscape:cx="408.89671"
   inkscape:cy="61.046155"
   inkscape:window-width="1920"
   inkscape:window-height="931"
   inkscape:window-x="26"
   inkscape:window-y="23"
   inkscape:window-maximized="0"
   inkscape:current-layer="Layer_1" />
<style
   type="text/css"
   id="style1">
	.st0{fill:#A6A6A6;}
	.st1{fill:#FFFFFF;}
</style>

<g
   id="g2"
   transform="translate(0.5,-179.61)"><path
     id="XMLID_3_"
     class="st0"
     d="M 493.76,331.89 H 17.96 C 8.14,331.89 0,323.75 0,313.93 V 198.07 c 0,-9.82 8,-17.96 17.96,-17.96 h 475.81 c 9.82,0 18.24,8 18.24,17.96 v 115.87 c -0.01,9.81 -8.29,17.95 -18.25,17.95 z" /><path
     id="XMLID_4_"
     d="m 508.35,313.93 c 0,8 -6.45,14.59 -14.59,14.59 H 17.96 c -8,0 -14.59,-6.45 -14.59,-14.59 V 198.07 c 0,-8 6.59,-14.59 14.59,-14.59 h 475.81 c 8,0 14.59,6.59 14.59,14.59 v 115.86 z"
     style="fill:#ffffff;fill-opacity:1" /><path
     id="XMLID_9_"
     class="st1"
     d="m 203.4,299.63 h -8.56 l -4.77,-14.87 h -16.41 l -4.49,14.87 h -8.42 l 16.27,-50.5 h 10.1 z m -14.73,-21.05 -4.21,-13.19 c -0.42,-1.4 -1.26,-4.49 -2.52,-9.54 h -0.14 c -0.56,2.1 -1.26,5.33 -2.38,9.54 l -4.21,13.19 z" /><path
     id="XMLID_12_"
     class="st1"
     d="m 245.2,280.97 c 0,6.17 -1.68,11.08 -5.05,14.73 -2.95,3.23 -6.73,4.77 -11.22,4.77 -4.77,0 -8.28,-1.68 -10.38,-5.19 h -0.14 v 19.22 h -8.14 v -39.28 c 0,-3.93 -0.14,-7.86 -0.28,-11.92 h 7.15 l 0.42,5.75 h 0.14 c 2.67,-4.35 6.73,-6.45 12.34,-6.45 4.35,0 7.86,1.68 10.8,5.05 2.94,3.37 4.36,7.85 4.36,13.32 z m -8.14,0.28 c 0,-3.51 -0.84,-6.45 -2.38,-8.7 -1.68,-2.38 -4.07,-3.65 -7.01,-3.65 -1.96,0 -3.79,0.7 -5.47,1.96 -1.68,1.26 -2.67,3.09 -3.23,5.19 -0.28,0.98 -0.42,1.82 -0.42,2.52 v 6.03 c 0,2.67 0.84,4.91 2.38,6.73 1.68,1.82 3.79,2.67 6.31,2.67 3.09,0 5.47,-1.12 7.15,-3.51 1.69,-2.23 2.67,-5.31 2.67,-9.24 z" /><path
     id="XMLID_15_"
     class="st1"
     d="m 287.14,280.97 c 0,6.17 -1.68,11.08 -5.05,14.73 -2.95,3.23 -6.73,4.77 -11.22,4.77 -4.77,0 -8.28,-1.68 -10.38,-5.19 h -0.14 v 19.22 h -8.14 v -39.28 c 0,-3.93 -0.14,-7.86 -0.28,-11.92 h 7.15 l 0.42,5.75 h 0.14 c 2.67,-4.35 6.73,-6.45 12.34,-6.45 4.35,0 7.86,1.68 10.8,5.05 2.82,3.36 4.36,7.85 4.36,13.32 z m -8.28,0.28 c 0,-3.51 -0.84,-6.45 -2.38,-8.7 -1.68,-2.38 -4.07,-3.65 -7.01,-3.65 -1.96,0 -3.79,0.7 -5.47,1.96 -1.68,1.26 -2.67,3.09 -3.23,5.19 -0.28,0.98 -0.42,1.82 -0.42,2.52 v 6.03 c 0,2.67 0.84,4.91 2.38,6.73 1.68,1.82 3.79,2.67 6.31,2.67 3.09,0 5.47,-1.12 7.15,-3.51 1.83,-2.23 2.67,-5.31 2.67,-9.24 z" /><path
     id="XMLID_16_"
     class="st1"
     d="m 333.85,285.46 c 0,4.35 -1.54,7.86 -4.49,10.52 -3.23,2.95 -7.86,4.35 -13.75,4.35 -5.47,0 -9.82,-0.98 -13.05,-3.09 l 1.82,-6.73 c 3.51,2.1 7.43,3.23 11.64,3.23 3.09,0 5.47,-0.7 7.15,-2.1 1.68,-1.4 2.52,-3.23 2.52,-5.47 0,-2.1 -0.7,-3.79 -2.1,-5.19 -1.4,-1.4 -3.65,-2.67 -7.01,-3.93 -8.84,-3.23 -13.19,-8.14 -13.19,-14.45 0,-4.21 1.54,-7.57 4.63,-10.24 3.09,-2.67 7.15,-3.93 12.34,-3.93 4.63,0 8.42,0.84 11.5,2.38 l -1.96,6.59 c -2.81,-1.54 -6.03,-2.38 -9.68,-2.38 -2.81,0 -5.05,0.7 -6.59,2.1 -1.4,1.26 -1.96,2.81 -1.96,4.63 0,1.96 0.7,3.65 2.38,4.91 1.4,1.26 3.79,2.52 7.29,3.93 4.35,1.68 7.57,3.79 9.54,6.17 1.99,2.24 2.97,5.19 2.97,8.7 z" /><path
     id="XMLID_17_"
     class="st1"
     d="m 360.64,269.33 h -8.98 V 287 c 0,4.49 1.54,6.73 4.77,6.73 1.4,0 2.67,-0.14 3.65,-0.42 l 0.28,6.17 c -1.54,0.56 -3.65,0.84 -6.31,0.84 -3.23,0 -5.75,-0.98 -7.43,-2.95 -1.82,-1.96 -2.67,-5.19 -2.67,-9.82 v -18.38 h -5.33 v -6.03 h 5.33 v -6.73 l 8,-2.38 v 9.12 h 8.98 v 6.17 h -0.29 z" /><path
     id="XMLID_20_"
     class="st1"
     d="m 400.9,281.11 c 0,5.61 -1.54,10.24 -4.77,13.75 -3.37,3.65 -7.86,5.61 -13.33,5.61 -5.33,0 -9.54,-1.82 -12.76,-5.33 -3.23,-3.51 -4.77,-8 -4.77,-13.47 0,-5.61 1.68,-10.24 4.91,-13.89 3.23,-3.65 7.72,-5.33 13.19,-5.33 5.33,0 9.68,1.82 12.91,5.33 3.08,3.51 4.62,7.86 4.62,13.33 z m -8.41,0.28 c 0,-3.37 -0.7,-6.17 -2.1,-8.7 -1.68,-2.95 -4.07,-4.35 -7.29,-4.35 -3.23,0 -5.75,1.4 -7.43,4.35 -1.4,2.38 -2.1,5.33 -2.1,8.84 0,3.37 0.7,6.17 2.1,8.7 1.68,2.95 4.21,4.35 7.29,4.35 3.09,0 5.47,-1.54 7.29,-4.49 1.39,-2.39 2.24,-5.33 2.24,-8.7 z" /><path
     id="XMLID_21_"
     class="st1"
     d="m 427.13,270.31 c -0.84,-0.14 -1.68,-0.28 -2.52,-0.28 -2.81,0 -5.05,1.12 -6.59,3.23 -1.4,1.96 -1.96,4.35 -1.96,7.15 v 19.08 h -8.14 l 0.14,-24.97 c 0,-4.21 -0.14,-8 -0.28,-11.5 h 7.01 l 0.28,7.01 h 0.28 c 0.84,-2.38 2.24,-4.35 4.07,-5.75 1.82,-1.26 3.79,-1.96 5.89,-1.96 0.7,0 1.4,0 1.96,0.14 v 7.86 h -0.14 z" /><path
     id="XMLID_24_"
     class="st1"
     d="m 463.32,279.71 c 0,1.4 -0.14,2.67 -0.28,3.65 h -24.27 c 0.14,3.65 1.26,6.31 3.51,8.28 2.1,1.68 4.63,2.52 8,2.52 3.65,0 6.87,-0.56 9.82,-1.68 l 1.26,5.61 c -3.51,1.54 -7.57,2.24 -12.2,2.24 -5.61,0 -10.1,-1.68 -13.33,-4.91 -3.23,-3.37 -4.77,-7.72 -4.77,-13.33 0,-5.47 1.54,-10.1 4.49,-13.75 3.09,-3.93 7.43,-5.89 12.76,-5.89 5.19,0 9.26,1.96 11.92,5.89 1.97,2.95 3.09,6.88 3.09,11.37 z m -7.71,-2.11 c 0,-2.38 -0.42,-4.49 -1.54,-6.17 -1.4,-2.24 -3.51,-3.37 -6.45,-3.37 -2.67,0 -4.77,1.12 -6.45,3.23 -1.4,1.68 -2.1,3.79 -2.38,6.31 z" /><path
     id="XMLID_27_"
     class="st1"
     d="m 186,218.13 c 0,4.49 -1.4,7.86 -4.07,10.1 -2.52,2.1 -6.03,3.09 -10.52,3.09 -2.24,0 -4.21,-0.14 -5.75,-0.28 v -24.41 c 2.1,-0.28 4.35,-0.56 6.87,-0.56 4.35,0 7.57,0.98 9.82,2.81 2.39,2.23 3.65,5.32 3.65,9.25 z m -4.2,0.14 c 0,-2.95 -0.7,-5.05 -2.24,-6.59 -1.54,-1.54 -3.79,-2.38 -6.73,-2.38 -1.26,0 -2.38,0.14 -3.23,0.28 v 18.52 c 0.42,0.14 1.4,0.14 2.67,0.14 3.09,0 5.33,-0.84 7.01,-2.52 1.67,-1.84 2.52,-4.23 2.52,-7.45 z" /><path
     id="XMLID_30_"
     class="st1"
     d="m 208.31,222.05 c 0,2.81 -0.84,5.05 -2.38,6.73 -1.68,1.82 -3.79,2.67 -6.59,2.67 -2.67,0 -4.77,-0.84 -6.31,-2.67 -1.54,-1.68 -2.38,-3.93 -2.38,-6.59 0,-2.81 0.84,-5.05 2.38,-6.87 1.54,-1.82 3.79,-2.67 6.45,-2.67 2.67,0 4.77,0.84 6.31,2.67 1.68,1.82 2.52,4.07 2.52,6.73 z m -4.21,0.14 c 0,-1.68 -0.42,-3.09 -1.12,-4.21 -0.84,-1.4 -1.96,-2.1 -3.51,-2.1 -1.54,0 -2.81,0.7 -3.65,2.1 -0.7,1.12 -1.12,2.67 -1.12,4.35 0,1.68 0.42,3.09 1.12,4.21 0.84,1.4 2.1,2.1 3.65,2.1 1.54,0 2.67,-0.7 3.51,-2.24 0.84,-1.12 1.12,-2.66 1.12,-4.21 z" /><path
     id="XMLID_31_"
     class="st1"
     d="m 238.04,213.22 -5.61,17.81 h -3.65 l -2.38,-7.72 c -0.56,-1.96 -1.12,-3.93 -1.4,-5.75 h -0.14 c -0.28,1.96 -0.84,3.93 -1.4,5.75 l -2.52,7.72 h -3.65 l -5.33,-17.81 h 4.07 l 1.96,8.56 c 0.42,1.96 0.84,3.93 1.26,5.75 h 0.14 c 0.28,-1.54 0.84,-3.37 1.54,-5.75 l 2.52,-8.56 h 3.23 l 2.38,8.42 c 0.56,2.1 1.12,3.93 1.4,5.89 h 0.14 c 0.28,-1.82 0.7,-3.79 1.26,-5.89 l 2.1,-8.42 z" /><path
     id="XMLID_32_"
     class="st1"
     d="m 258.67,231.03 h -3.93 v -10.24 c 0,-3.09 -1.26,-4.77 -3.65,-4.77 -1.12,0 -2.1,0.42 -2.81,1.26 -0.71,0.84 -1.12,1.82 -1.12,3.09 v 10.66 h -3.93 v -12.76 c 0,-1.54 0,-3.23 -0.14,-5.05 h 3.51 l 0.14,2.81 h 0.14 c 0.42,-0.84 1.12,-1.54 2.1,-2.1 1.12,-0.7 2.24,-0.98 3.65,-0.98 1.68,0 3.09,0.56 4.21,1.68 1.4,1.26 2.1,3.37 2.1,5.89 v 10.52 h -0.27 z" /><rect
     id="XMLID_33_"
     x="265.67999"
     y="205.08"
     class="st1"
     width="3.9300001"
     height="26.09" /><path
     id="XMLID_36_"
     class="st1"
     d="m 293.03,222.05 c 0,2.81 -0.84,5.05 -2.38,6.73 -1.68,1.82 -3.79,2.67 -6.59,2.67 -2.67,0 -4.77,-0.84 -6.31,-2.67 -1.54,-1.68 -2.38,-3.93 -2.38,-6.59 0,-2.81 0.84,-5.05 2.38,-6.87 1.54,-1.82 3.79,-2.67 6.45,-2.67 2.66,0 4.77,0.84 6.31,2.67 1.68,1.82 2.52,4.07 2.52,6.73 z m -4.21,0.14 c 0,-1.68 -0.42,-3.09 -1.12,-4.21 -0.84,-1.4 -1.96,-2.1 -3.51,-2.1 -1.54,0 -2.81,0.7 -3.65,2.1 -0.7,1.12 -1.12,2.67 -1.12,4.35 0,1.68 0.42,3.09 1.12,4.21 0.84,1.4 2.1,2.1 3.65,2.1 1.54,0 2.67,-0.7 3.51,-2.24 0.84,-1.12 1.12,-2.66 1.12,-4.21 z" /><path
     id="XMLID_39_"
     class="st1"
     d="m 312.25,231.03 h -3.51 l -0.28,-2.1 h -0.14 c -1.26,1.68 -2.95,2.52 -5.19,2.52 -1.68,0 -3.09,-0.56 -4.07,-1.68 -0.98,-0.98 -1.4,-2.24 -1.4,-3.65 0,-2.24 0.84,-3.79 2.81,-5.05 1.82,-1.12 4.35,-1.68 7.72,-1.68 v -0.28 c 0,-2.38 -1.26,-3.51 -3.65,-3.51 -1.82,0 -3.37,0.42 -4.63,1.26 l -0.84,-2.67 c 1.68,-0.98 3.65,-1.54 6.17,-1.54 4.63,0 7.01,2.52 7.01,7.43 v 6.59 c -0.28,1.98 -0.14,3.38 0,4.36 z M 308.18,225 v -2.81 c -4.35,-0.14 -6.59,1.12 -6.59,3.65 0,0.98 0.28,1.68 0.7,2.1 0.56,0.42 1.12,0.7 1.96,0.7 0.84,0 1.68,-0.28 2.38,-0.84 0.7,-0.56 1.26,-1.26 1.4,-2.1 z" /><path
     id="XMLID_42_"
     class="st1"
     d="m 334.83,231.03 h -3.51 l -0.14,-2.81 h -0.14 c -1.12,2.24 -3.09,3.23 -5.75,3.23 -2.1,0 -3.93,-0.84 -5.33,-2.52 -1.4,-1.68 -2.1,-3.93 -2.1,-6.59 0,-2.95 0.7,-5.19 2.38,-7.01 1.54,-1.68 3.37,-2.52 5.47,-2.52 2.38,0 4.07,0.84 5.05,2.38 h 0.14 v -10.24 h 3.93 v 21.32 c -0.14,1.82 -0.14,3.36 0,4.76 z m -4.06,-7.43 v -2.95 c 0,-0.56 0,-0.98 -0.14,-1.26 -0.28,-0.98 -0.7,-1.82 -1.4,-2.38 -0.7,-0.7 -1.68,-0.98 -2.67,-0.98 -1.54,0 -2.67,0.56 -3.51,1.82 -0.84,1.12 -1.26,2.67 -1.26,4.49 0,1.82 0.42,3.23 1.26,4.35 0.84,1.12 1.96,1.82 3.51,1.82 1.26,0 2.38,-0.42 3.09,-1.4 0.7,-1.13 1.12,-2.25 1.12,-3.51 z" /><path
     id="XMLID_45_"
     class="st1"
     d="m 368.78,222.05 c 0,2.81 -0.84,5.05 -2.38,6.73 -1.68,1.82 -3.79,2.67 -6.59,2.67 -2.67,0 -4.77,-0.84 -6.31,-2.67 -1.54,-1.68 -2.38,-3.93 -2.38,-6.59 0,-2.81 0.84,-5.05 2.38,-6.87 1.54,-1.82 3.79,-2.67 6.45,-2.67 2.67,0 4.77,0.84 6.31,2.67 1.82,1.82 2.52,4.07 2.52,6.73 z m -4.07,0.14 c 0,-1.68 -0.42,-3.09 -1.12,-4.21 -0.84,-1.4 -1.96,-2.1 -3.51,-2.1 -1.54,0 -2.81,0.7 -3.65,2.1 -0.7,1.12 -1.12,2.67 -1.12,4.35 0,1.68 0.42,3.09 1.12,4.21 0.84,1.4 2.1,2.1 3.65,2.1 1.54,0 2.67,-0.7 3.51,-2.24 0.7,-1.12 1.12,-2.66 1.12,-4.21 z" /><path
     id="XMLID_46_"
     class="st1"
     d="m 390.24,231.03 h -3.93 v -10.24 c 0,-3.09 -1.26,-4.77 -3.65,-4.77 -1.12,0 -2.1,0.42 -2.81,1.26 -0.7,0.84 -1.12,1.82 -1.12,3.09 v 10.66 h -3.93 v -12.76 c 0,-1.54 0,-3.23 -0.14,-5.05 h 3.51 l 0.14,2.81 h 0.14 c 0.42,-0.84 1.12,-1.54 2.1,-2.1 1.12,-0.7 2.24,-0.98 3.65,-0.98 1.68,0 3.09,0.56 4.21,1.68 1.4,1.26 2.1,3.37 2.1,5.89 v 10.52 h -0.27 z" /><path
     id="XMLID_47_"
     class="st1"
     d="m 416.89,216.16 h -4.35 v 8.7 c 0,2.24 0.84,3.37 2.38,3.37 0.7,0 1.26,0 1.82,-0.14 l 0.14,2.95 c -0.84,0.28 -1.82,0.42 -3.09,0.42 -1.54,0 -2.81,-0.42 -3.65,-1.4 -0.84,-0.98 -1.26,-2.52 -1.26,-4.77 v -8.98 h -2.81 v -2.95 h 2.67 v -3.23 l 3.93,-1.12 v 4.49 h 4.35 z" /><path
     id="XMLID_48_"
     class="st1"
     d="m 437.94,231.03 h -3.93 v -10.1 c 0,-3.23 -1.26,-4.77 -3.65,-4.77 -1.82,0 -3.09,0.98 -3.79,2.81 -0.14,0.42 -0.14,0.84 -0.14,1.4 v 10.8 h -3.93 v -26.09 h 3.93 v 10.8 h 0.14 c 1.26,-1.96 3.09,-2.95 5.33,-2.95 1.68,0 2.95,0.56 4.07,1.68 1.4,1.4 1.96,3.37 1.96,6.03 z" /><path
     id="XMLID_51_"
     class="st1"
     d="m 459.68,221.35 c 0,0.7 0,1.26 -0.14,1.82 h -11.92 c 0,1.82 0.56,3.09 1.68,4.07 0.98,0.84 2.24,1.26 3.93,1.26 1.82,0 3.37,-0.28 4.77,-0.84 l 0.56,2.81 c -1.68,0.7 -3.65,1.12 -6.03,1.12 -2.81,0 -4.91,-0.84 -6.59,-2.38 -1.54,-1.68 -2.38,-3.79 -2.38,-6.59 0,-2.67 0.7,-4.91 2.24,-6.73 1.54,-1.96 3.65,-2.81 6.31,-2.81 2.52,0 4.49,0.98 5.89,2.81 1.12,1.25 1.68,3.22 1.68,5.46 z m -3.79,-1.12 c 0,-1.12 -0.28,-2.24 -0.7,-3.09 -0.7,-1.12 -1.68,-1.68 -3.23,-1.68 -1.26,0 -2.38,0.56 -3.23,1.68 -0.7,0.84 -0.98,1.82 -1.12,3.09 z" /><g
     id="g1"
     transform="matrix(0.13945839,0,0,0.13945839,6.3062314,168.56013)"><path
       d="m 902.87712,881.78905 c -0.01,-0.01 -0.021,-0.021 -0.021,-0.03 -6.069,-6.85 -8.96,-19.55 -12.069,-33.08 -3.101,-13.52 -6.57,-28.1 -17.67,-37.55 -0.021,-0.021 -0.051,-0.04 -0.07,-0.061 -2.2,-1.92 -4.46,-3.539 -6.73,-4.89 -2.279,-1.35 -4.59,-2.45 -6.899,-3.32 15.43,-45.76 9.38,-91.329 -6.2,-132.5 -19.11,-50.54 -52.48,-94.569 -77.97,-124.689 -28.53,-35.99 -56.431,-70.15 -55.88,-120.61 0.849,-77.01 8.469,-219.82 -127.051,-220.01 -5.51,-0.01 -11.26,0.22 -17.25,0.7 -151.44,12.19 -111.27,172.19 -113.52,225.76 -2.77,39.18 -10.71,70.06 -37.66,108.36 -31.65,37.64 -76.23,98.57 -97.34,162 -9.96,29.93 -14.7,60.439 -10.33,89.319 -1.37,1.23 -2.67,2.521 -3.92,3.841 -9.29,9.93 -16.16,21.949 -23.81,30.039 -7.15,7.141 -17.33,9.851 -28.53,13.86 -11.2,4.021 -23.49,9.94 -30.95,24.26 0,0 0,0.011 -0.01,0.011 -0.01,0.02 -0.02,0.05 -0.04,0.069 -3.51,6.55 -4.65,13.62 -4.65,20.79 0,6.63 0.98,13.351 1.97,19.82 2.06,13.46 4.15,26.189 1.38,34.81 -8.86,24.23 -10,40.98 -3.76,53.141 6.26,12.18005 19.11,17.55005 33.64,20.59005 29.06,6.06 68.41,4.56 99.42,21 l 2.67,-5.03 -2.64,5.04 c 33.2,17.36 66.86,23.521 93.71,17.39 19.48,-4.439 35.28,-16.039 43.4,-33.88 21,-0.1 44.05,-9 80.97,-11.029 25.05,-2.021 56.34,8.899 92.33,6.899 0.94,3.9 2.301,7.66 4.16,11.23 0.021,0.029 0.04,0.069 0.061,0.1 13.949,27.9 39.869,40.66 67.5,38.48 27.659,-2.181 57.069,-18.49 80.85,-46.78 l -4.36,-3.66 4.391,3.62 c 22.66,-27.48005 60.27,-38.87005 85.22,-53.91005 12.47,-7.52 22.58,-16.939 23.37,-30.62 0.778,-13.67 -7.252,-28.99 -25.712,-49.48 z"
       id="path3"
       style="fill:#202020;fill-opacity:1"
       fill="#000000" /><path
       fill="#D6A312"
       d="m 917.20712,930.61905 c -0.48,8.439 -6.59,14.71 -17.88,21.51 -22.561,13.61 -62.551,25.45 -88.08,56.38005 -22.181,26.39 -49.221,40.88 -73.03,42.76 -23.809,1.88 -44.35,-8 -56.47,-32.31 l -0.021,-0.05 -0.029,-0.061 c -7.521,-14.3 -4.391,-36.85005 1.939,-60.64905 6.33,-23.79 15.43,-48.23 16.65,-68.08 v -0.061 c 1.279,-25.439 2.71,-47.66 6.979,-64.81 4.28,-17.15 11.01,-28.75 22.931,-35.28 0.56,-0.3 1.109,-0.59 1.659,-0.86 1.351,22.03 12.261,44.511 31.54,49.37 21.101,5.561 51.511,-12.54 64.351,-27.31 2.569,-0.101 5.069,-0.23 7.5,-0.29 11.27,-0.271 20.71,0.38 30.37,8.82 l 0.029,0.029 0.03,0.021 c 7.42,6.29 10.95,18.17 14.01,31.47 3.061,13.311 5.5,27.8 14.681,38.13 l 0.01,0.01 0.01,0.021 c 17.641,19.57 23.311,32.79 22.821,41.24 z"
       id="path5"
       style="fill:#ffcc00;fill-opacity:1" /><path
       d="m 488.45712,992.99905 -0.01,0.06 v 0.07 c -2.04,26.74005 -17.12,41.30005 -40.28,46.59005 -23.14,5.29 -54.53,0.021 -85.87,-16.37 -0.01,0 -0.02,-0.01 -0.03,-0.01 -34.68,-18.37 -75.93,-16.54 -102.4,-22.07 -13.23,-2.76005 -21.87,-6.92005 -25.83,-14.64005 -3.96,-7.73 -4.05,-21.2 4.37,-44.17 l 0.04,-0.101 0.03,-0.1 c 4.17,-12.85 1.08,-26.91 -0.94,-40.11 -2.02,-13.189 -3.01,-25.199 1.5,-33.56 l 0.04,-0.08 c 5.77,-11.12 14.23,-15.1 24.73,-18.86 10.51,-3.77 22.96,-6.729 32.79,-16.59 l 0.06,-0.05 0.05,-0.05 c 9.09,-9.59 15.92,-21.62 23.91,-30.15 6.74,-7.2 13.49,-11.97 23.66,-12.04 0.12,0.011 0.23,0.011 0.35,0 1.78,0.011 3.67,0.16 5.67,0.471 13.5,2.04 25.27,11.479 36.61,26.859 l 32.74,59.67 0.01,0.03 0.02,0.02 c 8.71,18.19 27.11,38.2 42.7,58.61 15.59,20.401 27.65,40.891 26.08,56.571 z"
       id="path7"
       style="fill:#ffcc00;fill-opacity:1"
       fill="#D6A312" /><path
       d="m 651.73712,436.73905 c -2.63,-5.15 -8,-10.05 -17.14,-13.8 l -0.02,-0.01 -0.03,-0.01 c -19.01,-8.14 -27.26,-8.72 -37.87,-15.62 -17.27,-11.1 -31.54,-14.99 -43.4,-14.94 -6.21,0.02 -11.76,1.12 -16.73,2.84 -14.45,4.97 -24.04,15.34 -30.05,21.03 l -0.01,0.01 c 0,0.01 -0.01,0.01 -0.01,0.02 -1.18,1.12 -2.7,2.14 -6.38,4.84 -3.71,2.71 -9.27,6.79 -17.27,12.79 -7.11,5.33 -9.42,12.27 -6.96,20.4 2.45,8.13 10.29,17.51 24.63,25.62 l 0.02,0.02 0.03,0.01 c 8.9,5.23 14.98,12.28 21.96,17.89 3.49,2.8 7.16,5.3 11.58,7.19 4.42,1.89 9.58,3.17 16.04,3.55 15.16,0.88 26.32,-3.67 36.17,-9.31 9.87,-5.63 18.229,-12.52 27.82,-15.63 l 0.02,-0.01 0.021,-0.01 c 19.659,-6.14 33.68,-18.51 38.069,-30.26 2.2,-5.88 2.13,-11.46 -0.49,-16.61 z"
       id="path9"
       style="fill:#ffcd00;fill-opacity:1"
       fill="#D6A312" /><path
       d="m 601.85712,465.75905 c -15.64075,8.1527 -33.91,18.04 -53.35,18.04 -19.43,0 -34.78,-8.98 -45.82,-17.73 -5.52,-4.37 -10,-8.72 -13.38,-11.88 -5.86434,-4.62903 -5.16188,-11.12168 -2.75246,-10.93 4.03863,0.50418 4.64927,5.82168 7.19246,8.2 3.44,3.22 7.75,7.39 12.97,11.53 10.44,8.27 24.36,16.32 41.79,16.32 17.4,0 37.71174,-10.21517 50.11,-17.17 7.02421,-3.94024 15.96224,-11.0031 23.25658,-16.35742 5.58072,-4.09647 5.37722,-9.02921 9.98509,-8.49216 4.60786,0.53705 1.19917,5.45984 -5.25377,11.09153 -6.45295,5.63169 -16.54818,13.10397 -24.7479,17.37805 z"
       id="path11"
       inkscape:connector-curvature="0"
       style="fill:#202020;fill-opacity:1"
       sodipodi:nodetypes="sscccccssszzs" /><path
       d="m 841.35712,799.51905 c -2.17,-0.08 -4.31,-0.069 -6.39,-0.02 -0.19,0.01 -0.38,0.01 -0.58,0.01 5.37,-16.96 -6.51,-29.47 -38.17,-43.79 -32.83,-14.439 -58.99,-13.01 -63.41,16.29 -0.28,1.53 -0.51,3.1 -0.68,4.68 -2.46,0.86 -4.92,1.94 -7.4,3.29 -15.41,8.44 -23.83,23.74 -28.51,42.521 -4.67,18.76 -6.02,41.43 -7.3,66.92 0,0.01 0,0.01 0,0.02 -0.79,12.811 -6.07,30.15 -11.41,48.511 -53.78,38.369 -128.42,54.989 -191.8,11.729 -4.29,-6.79 -9.22,-13.52 -14.29,-20.16 -3.24,-4.239 -6.57,-8.45 -9.87,-12.609 6.5,0.01 12.03,-1.061 16.5,-3.08 5.56,-2.53 9.46,-6.57 11.4,-11.771 3.86,-10.39 -0.02,-25.05 -12.39,-41.8 -12.37,-16.74 -33.32,-35.63 -64.1,-54.51 0,0 0,0 0,-0.01 -22.62,-14.07 -35.26,-31.311 -41.18,-50.03 -5.93,-18.73 -5.1,-38.98 -0.53,-58.97 8.76,-38.37 31.26,-75.69 45.62,-99.11 3.86,-2.84 1.38,5.28 -14.54,34.84 -14.26,27.021 -40.93,89.38 -4.42,138.061 0.98,-34.641 9.25,-69.971 23.14,-103.021 20.23,-45.85 62.54,-125.38 65.9,-188.76 1.74,1.26 7.69,5.28 10.34,6.79 0.01,0.01 0.01,0.01 0.02,0.01 7.76,4.57 13.59,11.25 21.14,17.32 7.57,6.08 17.02,11.33 31.3,12.16 1.37,0.08 2.71,0.12 4.02,0.12 14.72,0 26.2,-4.8 35.76,-10.27 10.391,-5.94 18.69,-12.52 26.561,-15.08 0.01,-0.01 0.02,-0.01 0.03,-0.01 16.63,-5.2 29.84,-14.4 37.359,-25.12 12.92,50.92 42.96,124.47 62.271,160.36 10.27,19.04 30.689,59.5 39.51,108.25 5.59,-0.171 11.75,0.64 18.34,2.329 23.07,-59.81 -19.56,-124.22 -39.06,-142.16 -7.87,-7.64 -8.25,-11.06 -4.34,-10.9 21.14,18.71 48.909,56.32 59.01,98.78 4.609,19.359 5.59,39.72 0.649,59.81 2.41,1 4.87,2.09 7.36,3.271 37.03,18.029 50.72,33.709 44.14,55.109 z"
       id="path13"
       fill="#ffffff" /><path
       d="m 653.47712,378.07905 c 0.08,10.09 -1.66,18.68 -5.49,27.45 -2.18,5 -4.689,9.2 -7.699,12.84 -1.021,-0.49 -2.08,-0.96 -3.181,-1.41 -3.81,-1.63 -7.18,-2.97 -10.199,-4.11 -3.021,-1.14 -5.37791,-1.91895 -7.80891,-2.75895 1.761,-2.13 5.23,-4.64 6.521,-7.79 1.96,-4.75 2.92,-9.39 3.1,-14.92 0,-0.22 0.07,-0.41 0.07,-0.67 0.11,-5.3 -0.59,-9.83 -2.14,-14.47 -1.62,-4.87 -3.681,-8.37 -6.66,-11.28 -2.99,-2.91 -5.97,-4.23 -9.55,-4.35 -0.17,-0.01 -0.33,-0.01 -0.5,-0.01 -3.36,0.01 -6.28,1.17 -9.301,3.69 -3.17,2.65 -5.52,6.04 -7.479,10.76 -1.95,4.72 -2.91,9.4 -3.101,14.96 -0.029,0.22 -0.029,0.41 -0.029,0.63 -0.07,3.06 0.13,5.86 0.6,8.58 -6.88,-3.43 -15.68209,-5.93105 -21.76209,-7.38105 -0.35,-2.63 -0.55,-5.34 -0.61,-8.18 v -0.77 c -0.11,-10.06 1.54,-18.69 5.41,-27.45 3.87,-8.77 8.66,-15.07 15.399,-20.2 6.75,-5.12 13.381,-7.47 21.23,-7.55 h 0.37 c 7.68,0 14.25,2.26 21,7.15 6.85,4.98 11.79,11.2 15.77,19.9 3.9,8.48 5.78,16.77 5.971,26.6 -0.001,0.26 -0.001,0.48 0.069,0.74 z"
       id="path15"
       inkscape:connector-curvature="0"
       style="fill:#ffffff"
       sodipodi:nodetypes="ccccccccccccccccccccccccscccc" /><path
       d="m 537.39712,388.12905 c -1.01,0.29 -1.99,0.6 -2.96,0.93 -5.5,1.9 -9.86686,3.99686 -14.08686,6.78686 0.41,-2.92 0.47,-5.88 0.15,-9.19 -0.03,-0.18 -0.03,-0.33 -0.03,-0.51 -0.44,-4.39 -1.37,-8.07 -2.92,-11.79 -1.65,-3.87 -3.5,-6.6 -5.93,-8.7 -2.2,-1.9 -4.28,-2.78 -6.58,-2.76 -0.23,0 -0.47,0.01 -0.71,0.03 -2.58,0.22 -4.72,1.48 -6.75,3.95 -2.02,2.46 -3.35,5.52 -4.31,9.58 -0.96,4.05 -1.21,8.03 -0.81,12.6 0,0.18 0.04,0.33 0.04,0.51 0.44,4.43 1.33,8.11 2.91,11.83 1.62,3.83 3.5,6.56 5.93,8.66 0.41,0.35 0.81,0.67 1.21,0.95 -2.52,1.95 -4.21314,3.33314 -6.29314,4.85314 -1.33,0.97 -2.91,2.13 -4.75,3.49 -4.01,-3.76 -7.14,-8.48 -9.88,-14.71 -3.24,-7.36 -4.97,-14.73 -5.49,-23.43 v -0.07 c -0.48,-8.7 0.37,-16.18 2.76,-23.92 2.4,-7.74 5.6,-13.34 10.25,-17.94 4.64,-4.61 9.32,-6.93 14.96,-7.22 0.44,-0.02 0.87,-0.03 1.3,-0.03 5.11,0.01 9.67,1.71 14.39,5.48 5.12,4.09 8.99,9.32 12.23,16.69 3.25,7.37 4.98,14.74 5.46,23.44 v 0.07 c 0.23,3.65 0.2,7.09 -0.09,10.42 z"
       id="path17"
       inkscape:connector-curvature="0"
       style="fill:#ffffff"
       sodipodi:nodetypes="cccccccccccccccccccccccccccccc" /><path
       sodipodi:nodetypes="aaaaaaa"
       inkscape:connector-curvature="0"
       id="path28396-7"
       d="m 563.05373,408.93874 c 0.64684,2.07624 3.99301,1.73211 5.92629,2.72792 1.69642,0.87378 3.06086,2.78891 4.96829,2.84398 1.82043,0.0526 4.65359,-0.63043 4.89041,-2.43615 0.31286,-2.38563 -3.17083,-3.90165 -5.41255,-4.77563 -2.88469,-1.12471 -6.58056,-1.69534 -9.28659,-0.19073 -0.6201,0.34477 -1.29689,1.15328 -1.08585,1.83064 z"
       style="opacity:1;fill:#202020;fill-opacity:1;stroke:none" /><path
       style="opacity:1;fill:#202020;fill-opacity:1;stroke:none"
       d="m 543.28938,408.93874 c -0.64684,2.07624 -3.99301,1.73211 -5.92629,2.72792 -1.69642,0.87378 -3.06086,2.78891 -4.96829,2.84398 -1.82043,0.0526 -4.65359,-0.63043 -4.89041,-2.43615 -0.31286,-2.38563 3.17083,-3.90165 5.41255,-4.77563 2.88469,-1.12471 6.58056,-1.69534 9.28659,-0.19073 0.6201,0.34477 1.29689,1.15328 1.08585,1.83064 z"
       id="path5461"
       inkscape:connector-curvature="0"
       sodipodi:nodetypes="aaaaaaa" /></g><path
     style="font-size:104px;font-family:'Adwaita Sans';-inkscape-font-specification:'Adwaita Sans, @opsz=32,wght=800';font-variation-settings:'opsz' 32, 'wght' 800"
     d="m 177.53961,311.90921 v -75.66406 h 18.28125 v 60.125 h 33.51563 v 15.53906 z m 58.80469,0 v -53.625 h 17.46875 v 53.625 z m 8.68359,-58.85547 q -4.21484,0 -6.90625,-2.48828 -2.6914,-2.48828 -2.6914,-6.34766 0,-3.85937 2.6914,-6.29687 2.69141,-2.48828 6.90625,-2.48828 4.21485,0 6.90625,2.48828 2.74219,2.4375 2.74219,6.29687 0,3.85938 -2.74219,6.34766 -2.6914,2.48828 -6.90625,2.48828 z m 36.00391,29.70703 v 29.14844 h -17.46875 v -53.625 h 17.26563 v 14.37109 h -2.58985 q 2.48828,-7.10937 7.21094,-11.32421 4.72266,-4.21485 12.44141,-4.21485 5.83984,0 9.95312,2.53906 4.11328,2.48829 6.29688,7.21094 2.18359,4.72266 2.18359,11.32422 v 33.71875 h -17.46875 v -30.0625 q 0,-4.77344 -2.28516,-7.26172 -2.28515,-2.53906 -6.44922,-2.53906 -2.74218,0 -4.82421,1.16797 -2.03125,1.16797 -3.14844,3.55469 -1.11719,2.33593 -1.11719,5.99218 z m 63.47656,30.31641 q -5.78906,0 -9.95312,-2.48828 -4.11328,-2.53906 -6.29688,-7.26172 -2.18359,-4.72266 -2.18359,-11.32422 v -33.71875 h 17.46875 v 30.0625 q 0,4.72266 2.28516,7.26172 2.33593,2.53906 6.44921,2.53906 2.74219,0 4.77344,-1.16797 2.08203,-1.16797 3.19922,-3.5039 1.11719,-2.38672 1.11719,-6.04297 v -29.14844 h 17.46875 v 53.625 h -17.26563 v -14.37109 h 2.58985 q -2.48828,7.05859 -7.21094,11.32422 -4.67188,4.21484 -12.44141,4.21484 z m 39.40625,-1.16797 21.32813,-30.875 -0.40625,6.60156 -19.5,-29.35156 h 18.83984 l 3.70703,6.24609 q 1.98047,3.55469 3.70703,6.75391 1.72657,3.19922 3.45313,6.44922 h -4.97656 q 1.77734,-3.25 3.5039,-6.44922 1.72657,-3.19922 3.8086,-6.75391 l 3.80859,-6.24609 h 18.58594 l -20.21094,29.35156 0.40625,-6.60156 20.61719,30.875 h -18.94141 l -4.0625,-6.65234 q -1.98047,-3.45313 -3.75781,-6.55078 -1.72656,-3.09766 -3.45313,-6.19532 h 4.0625 q -1.82812,3.09766 -3.55468,6.19532 -1.72657,3.09765 -3.8086,6.55078 l -4.21484,6.65234 z"
     id="text1"
     aria-label="Linux" /><path
     style="font-size:29.3333px;font-family:'Adwaita Sans';-inkscape-font-specification:'Adwaita Sans, @opsz=32,wght=600';font-variation-settings:'opsz' 32, 'wght' 600"
     d="m 181.40461,201.45151 v 21.34112 h -3.78125 v -21.34112 z m 6.98957,12.79035 v 8.55077 h -3.60937 v -15.12498 h 3.55208 v 3.85286 h -0.70182 q 0.73047,-2.03385 2.04817,-3.09375 1.33203,-1.05989 3.29427,-1.05989 1.58984,0 2.80729,0.6875 1.21745,0.67318 1.90494,2.0052 0.6875,1.33203 0.6875,3.27995 v 9.45311 h -3.62369 v -8.8802 q 0,-1.66145 -0.80208,-2.52083 -0.78776,-0.85937 -2.2487,-0.85937 -0.94531,0 -1.6901,0.38672 -0.74479,0.38672 -1.1888,1.20312 -0.42969,0.81641 -0.42969,2.11979 z m 19.12107,8.90885 q -1.83333,0 -3.29426,-0.57292 -1.46094,-0.58724 -2.34896,-1.70443 -0.88802,-1.1315 -1.0026,-2.74999 h 3.5664 q 0.11458,1.10286 0.88802,1.71875 0.78776,0.60156 2.13411,0.60156 1.30339,0 2.04818,-0.51563 0.75911,-0.51562 0.75911,-1.3177 0,-0.6875 -0.55859,-1.10287 -0.54427,-0.41536 -1.50391,-0.61588 l -2.57812,-0.52995 q -2.17708,-0.45833 -3.29427,-1.5612 -1.11718,-1.10286 -1.11718,-2.80728 0,-1.38933 0.74479,-2.4349 0.75911,-1.04557 2.11979,-1.63281 1.375,-0.58724 3.22265,-0.58724 1.83333,0 3.22265,0.61589 1.40365,0.61588 2.19141,1.74739 0.80208,1.11719 0.84505,2.67838 h -3.39453 q -0.0143,-1.01692 -0.78776,-1.67577 -0.75911,-0.65886 -1.99088,-0.65886 -1.1888,0 -1.8763,0.52995 -0.6875,0.52995 -0.6875,1.30338 0,0.67318 0.52995,1.10287 0.52994,0.41536 1.47525,0.6302 l 2.72136,0.5586 q 2.24869,0.47265 3.30859,1.48958 1.07421,1.01692 1.07421,2.67838 0,1.47526 -0.83073,2.5638 -0.8164,1.07422 -2.26301,1.66146 -1.44662,0.58724 -3.32292,0.58724 z m 17.14451,-15.48306 v 2.90755 h -9.33853 v -2.90755 z m -6.70311,-4.12499 h 3.62369 v 14.91013 q 0,0.80209 0.32943,1.11719 0.32942,0.3151 1.20312,0.3151 0.35807,0 0.81641,0 0.45833,0 0.73046,0 v 2.90755 q -0.37239,0 -0.98828,0 -0.60156,0 -1.1888,0 -2.32031,0 -3.42317,-0.93099 -1.10286,-0.94531 -1.10286,-2.8789 z m 13.919,19.49346 q -1.5039,0 -2.6927,-0.5013 -1.17448,-0.5013 -1.86198,-1.51823 -0.67317,-1.01692 -0.67317,-2.52083 0,-1.28906 0.48697,-2.11979 0.48698,-0.84505 1.31771,-1.34635 0.83073,-0.5013 1.90495,-0.75911 1.07422,-0.27214 2.23437,-0.38672 1.40364,-0.15755 2.22005,-0.27214 0.83073,-0.1289 1.1888,-0.35807 0.35807,-0.24349 0.35807,-0.75911 v -0.11459 q 0,-0.65885 -0.32942,-1.14583 -0.32943,-0.5013 -0.95964,-0.77343 -0.61588,-0.28646 -1.47526,-0.28646 -0.87369,0 -1.54687,0.28646 -0.65885,0.27213 -1.04557,0.77343 -0.38672,0.48698 -0.44401,1.13151 h -3.48047 q 0.10026,-1.5039 0.90235,-2.62109 0.8164,-1.13151 2.26301,-1.74739 1.44662,-0.63021 3.42318,-0.63021 1.47526,0 2.63541,0.35807 1.17448,0.34375 1.97656,1.01693 0.81641,0.67317 1.23177,1.61849 0.42969,0.94531 0.42969,2.11978 v 10.31249 h -3.55208 v -2.13411 h -0.0573 q -0.35808,0.67318 -0.93099,1.21745 -0.57292,0.52994 -1.43229,0.84505 -0.85938,0.3151 -2.09115,0.3151 z m 0.88802,-2.67838 q 1.18881,0 1.99089,-0.42969 0.80208,-0.42968 1.20312,-1.14583 0.41537,-0.71614 0.41537,-1.58984 v -1.63281 q -0.17188,0.10026 -0.50131,0.20052 -0.32942,0.10026 -0.78776,0.20052 -0.44401,0.0859 -0.97395,0.17187 -0.51563,0.0859 -1.07422,0.17188 -0.77344,0.10026 -1.43229,0.35807 -0.64453,0.24349 -1.04557,0.6875 -0.38672,0.42969 -0.38672,1.11719 0,0.58724 0.3151,1.01692 0.32943,0.42969 0.90235,0.65886 0.58724,0.21484 1.37499,0.21484 z m 14.91014,2.43489 q -2.42057,0 -3.48046,-0.88802 -1.0599,-0.90234 -1.0599,-2.97916 v -17.47394 h 3.60938 v 17.11587 q 0,0.78776 0.30078,1.08854 0.30078,0.28646 1.07421,0.28646 0.12891,0 0.30079,0 0.18619,0 0.30078,0 v 2.85025 q -0.25782,0 -0.52995,0 -0.25781,0 -0.51563,0 z m 7.57682,0 q -2.42057,0 -3.48047,-0.88802 -1.05989,-0.90234 -1.05989,-2.97916 v -17.47394 h 3.60937 v 17.11587 q 0,0.78776 0.30078,1.08854 0.30078,0.28646 1.07422,0.28646 0.1289,0 0.30078,0 0.1862,0 0.30078,0 v 2.85025 q -0.25781,0 -0.52995,0 -0.25781,0 -0.51562,0 z m 16.42837,0.34375 q -2.22005,0 -3.91015,-0.98828 -1.67578,-1.0026 -2.6211,-2.77864 -0.93098,-1.77604 -0.93098,-4.125 0,-2.34895 0.93098,-4.12499 0.94532,-1.79036 2.6211,-2.79297 1.6901,-1.0026 3.91015,-1.0026 2.23437,0 3.91015,1.0026 1.67578,1.00261 2.60677,2.79297 0.94531,1.77604 0.94531,4.12499 0,2.34896 -0.94531,4.125 -0.93099,1.77604 -2.60677,2.77864 -1.67578,0.98828 -3.91015,0.98828 z m 0,-3.02213 q 1.16015,0 2.0052,-0.58724 0.85938,-0.58724 1.31771,-1.67578 0.47266,-1.10286 0.47266,-2.60677 0,-1.51822 -0.47266,-2.60676 -0.45833,-1.10287 -1.31771,-1.69011 -0.84505,-0.60156 -2.0052,-0.60156 -1.16016,0 -2.01953,0.60156 -0.85938,0.58724 -1.33203,1.69011 -0.45833,1.08854 -0.45833,2.60676 0,1.51823 0.45833,2.60677 0.47265,1.08854 1.33203,1.67578 0.85937,0.58724 2.01953,0.58724 z m 13.56378,-5.87239 v 8.55077 h -3.60937 v -15.12498 h 3.55208 v 3.85286 h -0.70182 q 0.73046,-2.03385 2.04817,-3.09375 1.33203,-1.05989 3.29427,-1.05989 1.58984,0 2.80729,0.6875 1.21744,0.67318 1.90494,2.0052 0.6875,1.33203 0.6875,3.27995 v 9.45311 h -3.62369 v -8.8802 q 0,-1.66145 -0.80208,-2.52083 -0.78776,-0.85937 -2.2487,-0.85937 -0.94531,0 -1.6901,0.38672 -0.74479,0.38672 -1.1888,1.20312 -0.42969,0.81641 -0.42969,2.11979 z"
     id="text3"
     aria-label="Install on&#10;" /></g></svg>
